<svg xmlns="http://www.w3.org/2000/svg" width="117.111" height="89.785" viewBox="0 0 117.111 89.785"><defs><style>.a{fill:#10081a;}</style></defs><g transform="translate(-2 -11)"><path class="a" d="M117.159,22.711H111.3V12.952A1.952,1.952,0,0,0,109.351,11H76.17a17.565,17.565,0,0,0-15.613,9.522A17.567,17.567,0,0,0,44.941,11H11.759a1.952,1.952,0,0,0-1.952,1.952v9.759H3.952A1.952,1.952,0,0,0,2,24.663v74.17a1.952,1.952,0,0,0,1.952,1.952H117.159a1.952,1.952,0,0,0,1.952-1.952V24.663A1.952,1.952,0,0,0,117.159,22.711ZM13.711,85.17H44.941A13.663,13.663,0,0,1,57.3,92.977a21.588,21.588,0,0,0-12.355-3.9H13.711ZM76.17,14.9H107.4V81.266H76.17a17.567,17.567,0,0,0-13.663,6.6v-59.3A13.663,13.663,0,0,1,76.17,14.9ZM107.4,85.17v3.9H76.17a21.587,21.587,0,0,0-12.355,3.9A13.663,13.663,0,0,1,76.17,85.17ZM13.711,14.9H44.941A13.663,13.663,0,0,1,58.6,28.567v59.3a17.567,17.567,0,0,0-13.663-6.6H13.711ZM5.9,26.615h3.9V91.026a1.952,1.952,0,0,0,1.952,1.952H44.941a17.567,17.567,0,0,1,11.008,3.9H5.9Zm109.3,70.266H65.162a17.567,17.567,0,0,1,11.008-3.9h33.181a1.952,1.952,0,0,0,1.952-1.952V26.615h3.9Z"/><rect class="a" width="19.518" height="3.904" transform="translate(19.567 22.711)"/><rect class="a" width="19.518" height="3.904" transform="translate(31.278 32.47)"/><rect class="a" width="7.807" height="3.904" transform="translate(19.567 32.47)"/><rect class="a" width="31.229" height="3.904" transform="translate(19.567 42.229)"/><rect class="a" width="31.229" height="3.904" transform="translate(19.567 61.748)"/><rect class="a" width="31.229" height="3.904" transform="translate(19.567 71.507)"/><rect class="a" width="7.807" height="3.904" transform="translate(42.989 22.711)"/><rect class="a" width="19.518" height="3.904" transform="translate(19.567 51.989)"/><rect class="a" width="7.807" height="3.904" transform="translate(42.989 51.989)"/><rect class="a" width="19.518" height="3.904" transform="translate(82.026 71.507)"/><rect class="a" width="19.518" height="3.904" transform="translate(70.315 61.748)"/><rect class="a" width="7.807" height="3.904" transform="translate(93.737 61.748)"/><rect class="a" width="31.229" height="3.904" transform="translate(70.315 51.989)"/><rect class="a" width="31.229" height="3.904" transform="translate(70.315 32.47)"/><rect class="a" width="7.807" height="3.904" transform="translate(70.315 71.507)"/><rect class="a" width="19.518" height="3.904" transform="translate(82.026 42.229)"/><rect class="a" width="7.807" height="3.904" transform="translate(70.315 42.229)"/><rect class="a" width="11.711" height="3.904" transform="translate(89.833 22.711)"/><rect class="a" width="15.615" height="3.904" transform="translate(70.315 22.711)"/></g></svg>