<svg xmlns="http://www.w3.org/2000/svg" width="104.859" height="106.369" viewBox="0 0 104.859 106.369"><defs><style>.a{fill:none;stroke:#10081a;stroke-width:4px;}</style></defs><g transform="translate(-384.524 -1293.768)"><path class="a" d="M6.128,95.289C11.31,90.038,27.559,76.235,54.876,76.6c27.245.361,43.482,13.643,48.709,18.724,1.068,1.039.653,1.952-.836,1.952H7.006C5.517,97.278,5.082,96.348,6.128,95.289Z" transform="translate(381 1300.859)"/><path class="a" d="M100.9,37.276c-.215-.442-.479-.993-.828-1.592A13.45,13.45,0,0,0,98.7,33.842a12.762,12.762,0,0,0-1.929-1.95,16.406,16.406,0,0,0-2.494-1.81c-.461-.276-.947-.526-1.437-.787a8.149,8.149,0,0,0-1.534-.678,18.508,18.508,0,0,0-3.281-.984c-.564-.1-1.126-.225-1.69-.3s-1.137-.084-1.695-.125a9.348,9.348,0,0,0-1.663-.008c-.523.024-1.034.052-1.537.1l1.625-.794c.663-.283,1.3-.67,1.955-.923.327-.133.645-.282.96-.446.311-.183.641-.243.952-.4.63-.272,1.242-.571,1.852-.764a18.366,18.366,0,0,1,1.762-.671c.567-.188,1.11-.393,1.611-.588.493-.125.953-.284,1.335-.4.773-.246,1.269-.456,1.269-.456a8.235,8.235,0,0,0-1.025-.863c-.347-.248-.775-.564-1.3-.87a18.213,18.213,0,0,0-1.852-.727,9.706,9.706,0,0,0-2.326-.471,10.815,10.815,0,0,0-2.658-.018,12.542,12.542,0,0,0-2.786.518,16.754,16.754,0,0,0-2.7,1.021,21.645,21.645,0,0,0-2.444,1.462c-.209.157-.409.318-.615.476.076-.338.157-.675.2-1.024a18.651,18.651,0,0,0,.254-2.846l-.019-1.44c-.028-.48-.1-.955-.16-1.426a14.453,14.453,0,0,0-.584-2.73,13.663,13.663,0,0,0-.939-2.442c-.187-.374-.352-.738-.539-1.08-.219-.329-.43-.648-.633-.954a15.367,15.367,0,0,0-1.223-1.565c-.421-.432-.83-.777-1.154-1.059a9.163,9.163,0,0,0-1.1-.82s-.085.535-.129,1.37c-.028.787-.071,1.911-.122,3.261.011.634,0,1.311-.042,2.023-.017.7.011,1.422-.033,2.172-.016.745,0,1.5-.029,2.269-.013.768.012,1.542-.038,2.323.036.779-.03,1.56-.016,2.339V20.8a13.552,13.552,0,0,0-1.416-2.479,17.236,17.236,0,0,0-2.178-2.576,25.485,25.485,0,0,0-2.635-2.08A30.8,30.8,0,0,0,61.663,12.2c-.975-.337-1.931-.612-2.828-.845a19.949,19.949,0,0,0-2.595-.3,9.625,9.625,0,0,0-2.186.042c-.654.073-1.223.189-1.683.276a10.874,10.874,0,0,0-1.441.37s.432.4,1.17.944c.37.269.809.608,1.311.935.514.307,1.054.723,1.626,1.151s1.216.808,1.842,1.266c.608.484,1.244.963,1.916,1.406.619.518,1.232,1.055,1.9,1.522.566.588,1.232,1.068,1.8,1.645.555.587,1.189,1.108,1.7,1.732.256.307.55.585.819.881.242.314.485.626.753.919.523.6.954,1.238,1.433,1.829.4.59.839,1.146,1.2,1.7-.22-.246-.445-.492-.694-.742a21.122,21.122,0,0,0-2.226-1.951,24.21,24.21,0,0,0-2.782-1.8,21.533,21.533,0,0,0-3.248-1.462c-.578-.193-1.147-.434-1.745-.59l-1.81-.421a23.27,23.27,0,0,0-3.671-.451,9.942,9.942,0,0,0-1.81,0c-.6.031-1.187.055-1.762.113a22.786,22.786,0,0,0-3.267.618,15.86,15.86,0,0,0-2.8.974,14.326,14.326,0,0,0-2.231,1.1c-.635.4-1.164.789-1.6,1.1a14.2,14.2,0,0,0-1.306,1.062s.641.126,1.678.228c.519.047,1.143.118,1.831.145.682,0,1.472.164,2.289.215.824.083,1.689.071,2.6.229.909.136,1.85.146,2.81.308.96.179,1.943.226,2.928.419.98.219,1.991.272,2.972.548l1.492.288,1.469.356c.988.2,1.932.5,2.881.726,1.869.53,3.675,1.034,5.239,1.543l2.2.689c-2.559,4.267-13.91,17.209-13.91,54.22L62,86.316c0-35.1,9.525-48.356,11.6-51.892.492.487,1.045,1.036,1.645,1.635s1.218,1.189,1.85,1.855c.666.624,1.289,1.348,1.978,2.026.645.7,1.313,1.432,1.989,2.171.6.788,1.343,1.47,1.895,2.294l.93,1.151c.281.4.557.8.834,1.2s.594.772.838,1.18.479.816.744,1.206A24.626,24.626,0,0,1,87.691,51.5c.225.39.445.77.659,1.136.181.387.354.761.521,1.119.339.726.755,1.395,1.014,2.022s.523,1.186.735,1.654c.436.938.765,1.5.765,1.5a13.533,13.533,0,0,0,.573-1.575c.154-.511.352-1.146.516-1.885a16.38,16.38,0,0,0,.226-2.5q.012-.7.024-1.461c-.026-.5-.125-1.008-.194-1.542a15.083,15.083,0,0,0-.773-3.3,16.049,16.049,0,0,0-1.455-3.34c-.308-.537-.589-1.106-.942-1.625L88.228,40.2a22.714,22.714,0,0,0-2.552-2.716,15.257,15.257,0,0,0-1.4-1.145,13.978,13.978,0,0,0-1.429-1.024,22.138,22.138,0,0,0-2.9-1.586,19.329,19.329,0,0,0-2.552-.977c.465.058.916.112,1.406.175.823.079,1.674.255,2.544.337.863.189,1.756.236,2.636.438.884.164,1.78.291,2.652.525.9.126,1.753.41,2.624.6.882.166,1.692.5,2.542.693.86.176,1.613.543,2.412.752s1.525.51,2.227.754,1.411.417,1.982.666,1.129.411,1.58.569c.909.308,1.5.446,1.5.446A11.593,11.593,0,0,0,100.9,37.276Z" transform="translate(384.946 1292)"/><path class="a" d="M52.8,40.679a10.712,10.712,0,0,0-1.616-1.123c-.314-.19-.65-.369-1-.564-.362-.149-.751-.267-1.152-.409s-.827-.245-1.263-.371a9.046,9.046,0,0,0-1.36-.188c-.465-.055-.944-.073-1.431-.1-.48.011-.963.064-1.454.125a13.149,13.149,0,0,0-2.891.641,17.273,17.273,0,0,0-2.659,1.193c-.02.012-.038.026-.056.038.36-.551.708-1.109,1.084-1.634.411-.647.863-1.248,1.283-1.844.211-.3.445-.563.644-.866.217-.276.444-.537.647-.818a23.876,23.876,0,0,1,2.657-2.776c.447-.4.9-.747,1.331-1.065l1.181-.826c.7-.408,1.159-.725,1.159-.725a8.207,8.207,0,0,0-1.287-.61,10.4,10.4,0,0,0-1.595-.389,9.353,9.353,0,0,0-2.167-.043A11.511,11.511,0,0,0,37.7,30.2a14.063,14.063,0,0,0-2.355,1.945,16.878,16.878,0,0,0-1.943,2.378,18.8,18.8,0,0,0-1.451,2.614c-.179.391-.337.784-.487,1.177-.01-.244-.017-.49-.025-.733,0-.661-.082-1.337-.085-1.981s-.1-1.3-.082-1.917c-.018-.625-.1-1.254-.076-1.837,0-.588-.1-1.2-.061-1.732,0-.547-.02-1.079-.053-1.577.018-.471.009-.916.009-1.289,0-.747-.052-1.251-.052-1.251a7.294,7.294,0,0,0-1.107.58,12.409,12.409,0,0,0-1.192.82,17.145,17.145,0,0,0-1.259,1.332,9.751,9.751,0,0,0-1.191,1.813,10.7,10.7,0,0,0-.928,2.227,12.112,12.112,0,0,0-.539,2.5,16.688,16.688,0,0,0-.115,2.607,20.646,20.646,0,0,0,.325,2.552.575.575,0,0,1,.015.06c-.3-.209-.609-.417-.93-.609a17.329,17.329,0,0,0-2.661-1.189,13.267,13.267,0,0,0-2.894-.636c-.489-.062-.974-.108-1.453-.121-.487.021-.964.045-1.432.1a9.632,9.632,0,0,0-2.619.559c-.4.14-.788.256-1.153.409-.372.2-.727.38-1.054.576a9.433,9.433,0,0,0-1.632,1.133c-.389.391-.707.779-.974,1.087a10.686,10.686,0,0,0-.8,1.057,10.6,10.6,0,0,0,1.314.175c.4.028.9.075,1.455.075s1.089.167,1.652.228c.279.043.555.063.834.1l.92.188c.309.067.618.1.929.146s.628.157.941.227a9.579,9.579,0,0,0,.947.2c.315.1.628.216.948.291.637.145,1.275.385,1.916.6.656.164,1.278.5,1.943.678.624.312,1.307.479,1.933.779l.633.257a11.235,11.235,0,0,0-1.876,0,13.434,13.434,0,0,0-2.754.43,16.415,16.415,0,0,0-2.739.92,20.781,20.781,0,0,0-2.526,1.388,23.112,23.112,0,0,0-2.165,1.735,22.927,22.927,0,0,0-1.7,1.935,13.02,13.02,0,0,0-1.209,1.951,9.58,9.58,0,0,0-.783,1.771c-.184.554-.3,1.063-.4,1.471a9.447,9.447,0,0,0-.219,1.322,13.429,13.429,0,0,0,1.263-.474c.374-.164.834-.349,1.307-.588.461-.255,1.034-.471,1.6-.739s1.123-.606,1.761-.869,1.245-.6,1.873-.923c.66-.275,1.3-.593,1.943-.923.681-.248,1.3-.635,1.98-.889.6-.255,1.186-.536,1.783-.774-.14.129-.283.253-.423.384A18.426,18.426,0,0,0,18.79,55.97a14.675,14.675,0,0,0-1.379,2.345,10.972,10.972,0,0,0-.93,2.486c-.1.421-.235.82-.3,1.232-.045.421-.1.823-.128,1.22S16,64.03,15.989,64.4s.051.737.088,1.08a13.992,13.992,0,0,0,.334,1.845,14.391,14.391,0,0,0,.546,1.374,7.927,7.927,0,0,0,.6,1.126s.32-.4.737-1.055c.2-.327.465-.711.7-1.138.278-.423.606-.879.908-1.365a17.689,17.689,0,0,1,.991-1.5c.181-.256.333-.526.5-.792.2-.256.378-.525.569-.79s.356-.543.535-.819a9.735,9.735,0,0,0,.593-.811c.363-.556.777-1.1,1.178-1.66.352-.585.833-1.1,1.189-1.691.433-.539.8-1.126,1.2-1.676.787-1.113,1.537-2.212,2.186-3.217.1-.146.183-.285.273-.427,2.915,4.81,11.159,15.1,11.159,31.131L47.9,82.69c0-19.162-11.209-30.5-13.613-34.286.3-.118.606-.24.923-.373.585-.216,1.165-.493,1.8-.727.612-.27,1.256-.514,1.9-.775.63-.294,1.309-.469,1.936-.775.665-.18,1.289-.509,1.945-.673.642-.211,1.28-.447,1.917-.593.318-.076.633-.184.948-.288.316-.057.633-.108.946-.2a14.153,14.153,0,0,1,1.868-.373l.921-.189.887-.083c.581-.055,1.16-.188,1.668-.216s.981-.075,1.38-.109c.8-.076,1.32-.178,1.32-.178a8.066,8.066,0,0,0-.793-1.057C53.572,41.485,53.231,41.087,52.8,40.679Z" transform="translate(381.234 1294.599)"/></g></svg>