<svg xmlns="http://www.w3.org/2000/svg" width="111.195" height="111.195" viewBox="0 0 111.195 111.195"><g transform="translate(-5 -5)"><path d="M106.311,29.71h0a15.224,15.224,0,0,0,3.706-9.884A14.87,14.87,0,0,0,95.191,5H7.471a2.471,2.471,0,1,0,0,4.942h4.942v49.42a7.435,7.435,0,0,0,7.413,7.413H48.242v7.784A9.859,9.859,0,1,0,60.6,84.072a9.823,9.823,0,0,0-7.413-9.513V66.775h21a7.336,7.336,0,0,0,6.425,7.289L83.7,109.4a7.411,7.411,0,0,0,7.413,6.8h8.278a7.5,7.5,0,0,0,7.413-6.8l3.089-35.335a7.334,7.334,0,0,0,6.3-7.289V39.594A9.913,9.913,0,0,0,106.311,29.71ZM95.191,9.942a9.884,9.884,0,1,1-9.884,9.884A9.913,9.913,0,0,1,95.191,9.942ZM55.655,84.072a4.942,4.942,0,1,1-4.942-4.942A4.957,4.957,0,0,1,55.655,84.072ZM74.188,39.594V61.833H19.826a2.478,2.478,0,0,1-2.471-2.471V9.942H84.2a14.669,14.669,0,0,0,0,19.768h-.124A9.913,9.913,0,0,0,74.188,39.594Zm27.552,69.435a2.438,2.438,0,0,1-2.471,2.224H90.991a2.528,2.528,0,0,1-2.471-2.224L85.555,74.188h19.274Zm9.513-42.254a2.478,2.478,0,0,1-2.471,2.471H81.6a2.478,2.478,0,0,1-2.471-2.471V39.594a4.957,4.957,0,0,1,4.942-4.942h22.239a4.957,4.957,0,0,1,4.942,4.942Z"/></g></svg>