<svg xmlns="http://www.w3.org/2000/svg" width="121" height="104.31" viewBox="0 0 121 104.31"><g transform="translate(-423 125)"><path d="M108.625,7H51.776a15.417,15.417,0,0,0-15.4,15.4V34.308h-23.2a10.1,10.1,0,0,0-6.718,2.816A11.14,11.14,0,0,0,3,45.219V92.534a6.572,6.572,0,0,0,6.551,6.551H19.69v1.794A10.431,10.431,0,0,0,30.121,111.31h78.5A15.4,15.4,0,0,0,124,95.935V22.4A15.417,15.417,0,0,0,108.625,7ZM9.551,94.871a2.378,2.378,0,0,1-2.378-2.337V45.219a6.989,6.989,0,0,1,2.086-5.028,5.925,5.925,0,0,1,4.172-1.711,4.611,4.611,0,0,1,.772,0h.542l.626.188.5.188c.209,0,.417.209.626.313l.417.229a7.823,7.823,0,0,1,.918.772,6.259,6.259,0,0,1,1.857,4.569V94.808Zm14.311,6.008V44.739a9.6,9.6,0,0,0-.188-1.9,5.591,5.591,0,0,0-.146-.563,9.513,9.513,0,0,0-.376-1.252,5.259,5.259,0,0,0-.25-.605c-.188-.376-.376-.751-.584-1.106l-.355-.563-.188-.271h14.6v62.4a6.259,6.259,0,1,1-12.517,0Zm95.965-4.944a11.224,11.224,0,0,1-11.2,11.2H38.466l.167-.25.334-.542a10.867,10.867,0,0,0,.584-1.085c.1-.209.188-.417.271-.626a12.1,12.1,0,0,0,.4-1.231,2.662,2.662,0,0,1,.146-.584,11.766,11.766,0,0,0,.188-1.94V22.4A11.224,11.224,0,0,1,51.776,11.172h56.849a11.224,11.224,0,0,1,11.2,11.224Z" transform="translate(420 -132)"/><path d="M66.784,24.08H43.836a2.086,2.086,0,0,0-2.086,2.086V46.694a2.086,2.086,0,0,0,2.086,2.086H66.784a2.086,2.086,0,0,0,2.086-2.086V26.166A2.086,2.086,0,0,0,66.784,24.08ZM64.7,44.608H45.922V28.252H64.7Z" transform="translate(462.091 -113.448)"/><path d="M28.336,20.552H82.411a2.086,2.086,0,0,0,0-4.172H28.336a2.086,2.086,0,0,0,0,4.172Z" transform="translate(445.254 -121.811)"/><path d="M49.72,39.56H28.336a2.086,2.086,0,0,0,0,4.172H49.72a2.086,2.086,0,0,0,0-4.172Z" transform="translate(445.254 -96.633)"/><path d="M49.72,33.19H28.336a2.086,2.086,0,0,0,0,4.172H49.72a2.086,2.086,0,0,0,0-4.172Z" transform="translate(445.254 -103.552)"/><path d="M49.72,26.83H28.336a2.086,2.086,0,0,0,0,4.172H49.72a2.086,2.086,0,0,0,0-4.172Z" transform="translate(445.254 -110.461)"/><path d="M65.97,39.56H44.586a2.086,2.086,0,0,0,0,4.172H65.97a2.086,2.086,0,1,0,0-4.172Z" transform="translate(462.905 -96.633)"/><path d="M49.72,45.92H28.336a2.086,2.086,0,0,0,0,4.172H49.72a2.086,2.086,0,0,0,0-4.172Z" transform="translate(445.254 -89.725)"/><path d="M65.97,45.92H44.586a2.086,2.086,0,0,0,0,4.172H65.97a2.086,2.086,0,1,0,0-4.172Z" transform="translate(462.905 -89.725)"/></g></svg>