<?xml version="1.0" encoding="utf-8"?>
<!-- Generator: Adobe Illustrator 16.0.0, SVG Export Plug-In . SVG Version: 6.00 Build 0)  -->
<!DOCTYPE svg PUBLIC "-//W3C//DTD SVG 1.1//EN" "http://www.w3.org/Graphics/SVG/1.1/DTD/svg11.dtd">
<svg version="1.1" id="Layer_1" xmlns="http://www.w3.org/2000/svg" xmlns:xlink="http://www.w3.org/1999/xlink" x="0px" y="0px"
	 width="292px" height="286.832px" viewBox="0 0 292 286.832" enable-background="new 0 0 292 286.832" xml:space="preserve">
<g>
	<path fill-rule="evenodd" clip-rule="evenodd" d="M0.24,133.236c0-8.4,0-16.8,0-25.2c0.077-0.223,0.181-0.44,0.227-0.669
		c1.024-5.104,4.759-8.846,9.792-9.802c4.846-0.921,9.75,1.228,12.521,5.484c0.144,0.22,0.306,0.428,0.525,0.734
		c4.125-5.315,9.677-6.896,16.034-6.346c0-4.527,0-8.842,0-13.158c0-18.753-0.02-37.506,0.012-56.26
		c0.009-5.514,0.108-11.03,0.274-16.542c0.182-6.041,2.652-9.273,8.286-11.122c0.034-0.011,0.06-0.052,0.089-0.079
		c65.28,0,130.56,0,195.84,0c0.264,0.08,0.521,0.187,0.791,0.236c3.809,0.694,6.385,2.857,7.501,6.561
		c0.407,1.353,0.583,2.826,0.585,4.245c0.032,28.434,0.024,56.867,0.024,85.3c0,0.489,0,0.979,0,1.448
		c3.193-1.056,6.233-0.896,9.251-0.155c3.14,0.77,5.586,2.655,7.597,5.202c0.238-0.305,0.411-0.521,0.577-0.742
		c3.273-4.343,8.712-6.065,13.783-4.363c5,1.679,8.22,6.273,8.221,11.738c0.002,7.358,0.021,14.717-0.007,22.075
		c-0.018,4.782-2.186,8.412-6.339,10.667c-4.199,2.28-8.511,2.124-12.489-0.561c-1.641-1.107-2.925-2.742-4.404-4.168
		c-2.877,3.744-6.952,5.85-11.918,6.359c0.333,0.239,0.625,0.354,0.913,0.481c0.292,0.129,0.584,0.259,0.869,0.404
		c4.863,2.47,8.011,6.309,9.018,11.704c2.322,12.443,4.562,24.902,6.841,37.354c2.926,15.986,5.853,31.974,8.787,47.959
		c1.046,5.694,2.035,11.4,3.202,17.071c0.745,3.623,1.24,7.223,0.916,10.934c-0.722,8.264-5.455,13.989-13.479,16.061
		c-1.729,0.446-3.518,0.666-5.279,0.99c-82.319,0-164.64,0-246.96,0c-1.021-0.163-2.044-0.31-3.061-0.493
		c-4.306-0.777-8.23-2.339-11.222-5.686c-3.788-4.236-4.868-9.371-4.521-14.835c0.174-2.732,0.789-5.442,1.28-8.148
		c2.655-14.619,5.331-29.233,8.005-43.849c3.422-18.701,6.905-37.393,10.247-56.108c1.16-6.494,4.568-11.021,10.642-13.56
		c0.146-0.061,0.27-0.174,0.584-0.382c-4.606-0.28-8.166-2.17-10.94-5.677c-0.324,0.405-0.568,0.709-0.811,1.014
		c-4.904,6.182-14.295,6.167-19.186-0.013C1.428,137.533,0.752,135.425,0.24,133.236z M143.942,126.188
		c-0.415-0.093-0.565-0.128-0.716-0.161c-6.089-1.302-9.807-5.901-9.808-12.133c0-3.76-0.003-7.52,0.001-11.28
		c0.006-5.707,3.909-10.578,9.513-11.606c1.865-0.342,3.821-0.292,5.732-0.252c5.604,0.116,10.742,4.706,11.14,10.308
		c0.325,4.576,0.367,9.2,0.133,13.781c-0.289,5.652-3.938,9.792-9.198,11.056c-0.615,0.147-1.246,0.231-1.887,0.347
		c0,2.417,0.028,4.771-0.005,7.124c-0.086,6.074-0.066,12.153-0.343,18.219c-0.207,4.547-2.552,7.717-7.025,9.129
		c-1.256,0.396-2.468,0.938-3.732,1.297c-11.559,3.286-23.125,6.546-34.688,9.816c-0.363,0.103-0.72,0.227-1.136,0.359
		c0.19,0.409,0.316,0.7,0.458,0.983c0.321,0.643,0.638,1.288,0.976,1.922c5.974,11.202,14.952,18.711,27.317,21.869
		c9.782,2.499,19.633,2.474,29.421-0.032c10.254-2.625,18.395-8.352,24.348-17.118c5.862-8.631,8.747-18.32,9.949-28.572
		c0.323-2.761,0.412-5.549,0.62-8.473c17.879,0,35.769,0,53.777,0c0-0.62,0-1.092,0-1.565c0-43.12,0.001-86.24-0.006-129.36
		c0-0.797-0.046-1.602-0.157-2.39c-0.404-2.876-2.177-4.704-4.953-5.061c-0.866-0.111-1.756-0.053-2.635-0.053
		C177.879,4.342,114.719,4.342,51.559,4.34c-0.64,0-1.279-0.038-1.918-0.041c-2.475-0.008-4.337,1.179-5.209,3.485
		c-0.391,1.033-0.708,2.155-0.746,3.248c-0.188,5.472-0.391,10.947-0.374,16.421c0.079,24.95,0.264,49.898,0.339,74.848
		c0.039,12.757-0.074,25.514-0.118,38.271c-0.002,0.708,0,1.417,0,2.267c17.535,0,34.872,0,52.27,0
		c-0.029,8.515,1.374,16.645,4.176,24.623c0.472-0.107,0.858-0.181,1.235-0.283c5.124-1.396,10.267-2.727,15.366-4.209
		c7.743-2.25,15.45-4.624,23.184-6.905c2.365-0.697,3.643-2.208,3.795-4.646c0.156-2.511,0.344-5.023,0.367-7.538
		C143.979,138.009,143.942,132.135,143.942,126.188z M198.819,146.767c-0.117,1.328-0.21,2.48-0.323,3.631
		c-0.928,9.438-3.289,18.474-7.81,26.854c-6.298,11.676-15.687,19.639-28.541,23.271c-9.15,2.587-18.457,2.849-27.794,1.31
		c-12.533-2.066-22.82-7.984-30.416-18.3c-5.28-7.17-8.509-15.256-10.303-23.911c-0.865-4.174-1.346-8.427-2.024-12.802
		c-0.218-0.011-0.646-0.051-1.075-0.052c-16.12-0.003-32.239-0.033-48.358,0.037c-2.051,0.009-4.17,0.313-6.136,0.893
		c-5.241,1.541-8.511,4.991-9.42,10.507c-0.396,2.403-0.874,4.794-1.313,7.19c-2.911,15.871-5.822,31.741-8.731,47.612
		c-2.78,15.164-5.514,30.337-8.365,45.487c-0.756,4.017-1.656,7.976-1.039,12.104c0.839,5.613,3.737,9.613,9.253,11.223
		c2.609,0.761,5.415,1.182,8.133,1.185c80.476,0.061,160.952,0.049,241.429,0.046c0.8,0,1.602-0.006,2.397-0.065
		c2.851-0.212,5.636-0.73,8.192-2.074c5.065-2.662,6.856-7.203,7.114-12.591c0.155-3.228-0.597-6.333-1.186-9.479
		c-2.802-14.957-5.507-29.932-8.247-44.9c-3.344-18.268-6.759-36.523-9.991-54.811c-0.964-5.454-3.573-9.403-8.861-11.17
		c-2.197-0.734-4.611-1.13-6.93-1.145c-16.119-0.096-32.238-0.05-48.357-0.05C199.724,146.767,199.33,146.767,198.819,146.767z
		 M287.259,120.731c0-3.759,0.022-7.518-0.006-11.277c-0.028-3.82-3.141-6.974-7.004-7.154c-3.715-0.173-7.284,2.808-7.381,6.578
		c-0.181,7.033-0.108,14.072-0.134,21.108c-0.002,0.758,0.02,1.519,0.088,2.274c0.378,4.185,3.599,6.962,7.803,6.747
		c3.646-0.186,6.625-3.485,6.633-7.359C287.265,128.01,287.259,124.371,287.259,120.731z M5.221,120.6
		c0,3.679-0.024,7.358,0.006,11.037c0.035,4.252,3.186,7.396,7.335,7.373c4.037-0.022,7.128-3.247,7.13-7.453
		c0.003-7.238,0.003-14.477-0.003-21.715c0-0.518-0.005-1.046-0.103-1.551c-0.703-3.636-4.085-6.29-7.583-5.976
		c-3.87,0.347-6.724,3.36-6.771,7.248C5.187,113.241,5.222,116.921,5.221,120.6z M38.592,139.104c0-12.402,0-24.563,0-36.803
		c-1.02,0-1.937-0.039-2.849,0.007c-6.035,0.303-10.597,5.098-10.601,11.131c-0.004,5.557-0.013,11.115,0.003,16.671
		c0.012,4.22,2.876,7.878,7.045,8.646C34.244,139.135,36.393,139.001,38.592,139.104z M138.332,108.516
		c0,1.919-0.025,3.839,0.005,5.758c0.053,3.345,2.239,6.118,5.518,6.775c1.351,0.271,2.781,0.195,4.174,0.192
		c3.797-0.009,6.927-2.99,7.002-6.779c0.08-3.997,0.073-7.998,0.004-11.995c-0.061-3.468-2.705-6.338-6.163-6.715
		c-1.381-0.15-2.803-0.163-4.185-0.024c-3.734,0.375-6.302,3.264-6.352,7.03C138.311,104.677,138.331,106.597,138.332,108.516z
		 M255.694,138.933c6.117,0.541,11.524-4.591,11.567-10.917c0.036-5.399,0.014-10.799,0.006-16.199
		c-0.008-6.322-5.229-10.573-11.573-9.361C255.694,114.579,255.694,126.716,255.694,138.933z"/>
	<path fill-rule="evenodd" clip-rule="evenodd" d="M89.903,57.337c-8.64,0-17.279,0.01-25.919-0.005
		c-3.632-0.006-6.732-2.204-7.916-5.543c-1.151-3.249-0.168-6.907,2.485-9.138c1.559-1.311,3.368-1.914,5.416-1.912
		c17.359,0.012,34.718,0.003,52.077,0.009c4.738,0.001,8.328,3.537,8.363,8.203c0.036,4.686-3.588,8.363-8.348,8.378
		C107.342,57.357,98.623,57.337,89.903,57.337z M89.951,52.371c8.56,0,17.12,0.001,25.679-0.001c2.313,0,3.861-1.348,3.867-3.348
		c0.005-1.982-1.567-3.362-3.853-3.363c-6.72-0.003-13.439-0.001-20.159-0.001c-10.4,0-20.799,0.007-31.199-0.008
		c-1.195-0.002-2.221,0.323-2.969,1.264c-0.836,1.053-1.041,2.235-0.447,3.478c0.654,1.368,1.778,1.983,3.281,1.982
		C72.751,52.367,81.351,52.37,89.951,52.371z"/>
	<path fill-rule="evenodd" clip-rule="evenodd" d="M214.574,40.746c5.638,0,11.275-0.004,16.914,0.001
		c4.822,0.005,8.474,3.535,8.497,8.203c0.024,4.726-3.639,8.375-8.479,8.382c-11.396,0.016-22.792,0.021-34.188-0.003
		c-4.372-0.009-7.826-3.116-8.351-7.405c-0.487-3.991,2.099-7.812,6.084-8.901c0.759-0.207,1.577-0.263,2.369-0.266
		C203.138,40.736,208.855,40.746,214.574,40.746z M214.473,45.657c-5.596,0-11.192-0.003-16.788,0.002
		c-2.293,0.002-3.801,1.369-3.778,3.405c0.021,1.979,1.518,3.304,3.758,3.305c11.191,0.003,22.384,0.003,33.576-0.005
		c0.474,0,0.969-0.023,1.416-0.16c1.632-0.5,2.574-2.041,2.331-3.717c-0.239-1.648-1.651-2.82-3.486-2.825
		C225.825,45.649,220.148,45.657,214.473,45.657z"/>
	<path fill-rule="evenodd" clip-rule="evenodd" d="M163.912,32.901c-5.516,0-11.032,0.042-16.548-0.015
		c-3.449-0.036-6.104-1.589-7.6-4.73c-1.443-3.03-1.104-6.008,0.929-8.692c1.621-2.139,3.864-3.187,6.542-3.191
		c11.112-0.016,22.224-0.049,33.335,0.014c4.825,0.027,8.317,3.674,8.294,8.401c-0.021,4.554-3.666,8.159-8.405,8.202
		C174.944,32.939,169.428,32.901,163.912,32.901z M163.946,27.935c3.721,0,7.44,0.004,11.16-0.001
		c1.92-0.002,3.842,0.042,5.758-0.051c1.606-0.078,2.869-1.382,3.019-2.908c0.169-1.722-0.806-3.195-2.465-3.616
		c-0.571-0.145-1.184-0.173-1.778-0.174c-10.279-0.01-20.559-0.007-30.839-0.007c-0.52,0-1.042-0.025-1.56,0.009
		c-1.661,0.107-2.951,1.18-3.266,2.687c-0.462,2.206,1.087,4.037,3.533,4.051C152.987,27.956,158.467,27.934,163.946,27.935z"/>
	<path fill-rule="evenodd" clip-rule="evenodd" d="M158.4,40.746c4.756,0,9.512-0.006,14.267,0.002
		c4.76,0.007,8.442,3.606,8.467,8.259c0.025,4.583-3.728,8.314-8.442,8.324c-9.552,0.02-19.103,0.021-28.654,0
		c-4.819-0.011-8.45-3.674-8.423-8.42c0.025-4.607,3.666-8.153,8.399-8.163C148.81,40.738,153.604,40.746,158.4,40.746z
		 M158.356,45.657c-4.679,0-9.358-0.003-14.038,0.002c-2.235,0.002-3.725,1.335-3.736,3.323c-0.011,2.021,1.449,3.385,3.667,3.386
		c9.398,0.006,18.797,0.006,28.195,0c2.161-0.001,3.738-1.45,3.72-3.38c-0.018-1.95-1.567-3.327-3.771-3.329
		C167.716,45.653,163.036,45.657,158.356,45.657z"/>
	<path fill-rule="evenodd" clip-rule="evenodd" d="M75.047,16.266c3.68,0.001,7.36-0.042,11.04,0.013
		c4.16,0.063,7.52,2.855,8.204,6.713c0.716,4.039-1.44,7.96-5.225,9.335c-0.922,0.335-1.946,0.542-2.924,0.548
		c-7.399,0.045-14.799,0.065-22.199,0.009c-4.279-0.033-7.804-3.139-8.251-7.091c-0.502-4.438,1.992-8.209,6.184-9.259
		c0.803-0.201,1.66-0.251,2.493-0.257C67.928,16.25,71.488,16.266,75.047,16.266z M75.025,27.928c0,0.001,0,0.003,0,0.004
		c3.64,0,7.28,0.025,10.919-0.01c2.024-0.02,3.52-1.462,3.552-3.307c0.032-1.841-1.448-3.408-3.452-3.419
		c-7.359-0.042-14.718-0.037-22.078,0.001c-1.528,0.008-2.679,0.799-3.219,2.27c-0.803,2.187,0.785,4.408,3.24,4.447
		C67.666,27.971,71.346,27.928,75.025,27.928z"/>
	<path fill-rule="evenodd" clip-rule="evenodd" d="M75,70.746c3.68,0,7.359-0.006,11.039,0.002c4.742,0.01,8.332,3.53,8.371,8.195
		c0.039,4.688-3.582,8.367-8.339,8.386c-7.399,0.03-14.799,0.036-22.198-0.002c-4.643-0.024-8.318-3.785-8.271-8.354
		c0.048-4.658,3.646-8.208,8.359-8.225C67.64,70.735,71.32,70.746,75,70.746z M75.004,75.657c-3.6,0-7.2-0.007-10.799,0.002
		c-2.112,0.005-3.635,1.385-3.685,3.307c-0.049,1.907,1.56,3.398,3.713,3.4c7.199,0.008,14.399,0.008,21.599,0
		c2.12-0.002,3.632-1.383,3.666-3.307c0.033-1.94-1.534-3.395-3.694-3.4C82.204,75.65,78.604,75.657,75.004,75.657z"/>
	<path fill-rule="evenodd" clip-rule="evenodd" d="M72.853,100.746c2.92,0,5.839-0.008,8.759,0.002
		c4.668,0.015,8.312,3.542,8.373,8.09c0.063,4.645-3.477,8.421-8.129,8.48c-6.039,0.077-12.079,0.069-18.118,0.002
		c-4.577-0.05-8.194-3.841-8.137-8.36c0.058-4.614,3.632-8.181,8.253-8.21C66.854,100.73,69.854,100.746,72.853,100.746z
		 M72.74,112.37c2.878,0,5.757,0.008,8.636-0.002c2.144-0.007,3.62-1.355,3.641-3.299c0.022-2.002-1.465-3.405-3.655-3.408
		c-5.717-0.009-11.435-0.009-17.152,0c-2.155,0.003-3.746,1.496-3.694,3.421c0.052,1.887,1.607,3.278,3.708,3.286
		C67.062,112.378,69.901,112.37,72.74,112.37z"/>
	<path fill-rule="evenodd" clip-rule="evenodd" d="M110.799,100.986c2.638,0,5.275,0,7.913,0c4.544,0,7.295,2.401,7.931,6.92
		c0.612,4.359-2.101,8.841-6.07,9.028c-6.575,0.309-13.176,0.131-19.764,0.032c-1.955-0.029-3.403-1.291-4.516-2.841
		c-2.257-3.143-2.048-7.881,0.471-10.822c1.286-1.5,2.907-2.328,4.923-2.32C104.724,100.995,107.761,100.986,110.799,100.986z
		 M110.715,112.61c2.837,0,5.675-0.033,8.511,0.015c1.256,0.021,2.187-0.519,2.496-1.635c0.294-1.066,0.43-2.281,0.229-3.354
		c-0.307-1.641-1.262-2.218-2.917-2.218c-5.594-0.002-11.188,0.023-16.782-0.018c-1.365-0.01-2.34,0.582-2.628,1.798
		c-0.263,1.11-0.312,2.375-0.058,3.479c0.335,1.461,1.237,1.93,2.759,1.932C105.122,112.613,107.918,112.61,110.715,112.61z"/>
	<path fill-rule="evenodd" clip-rule="evenodd" d="M116.607,32.72c-2.152,0-4.341,0.251-6.45-0.053
		c-4.26-0.613-6.938-4.29-6.732-8.803c0.179-3.91,3.429-7.299,7.531-7.507c3.706-0.188,7.432-0.182,11.14-0.039
		c4.529,0.174,7.993,3.923,7.923,8.305c-0.072,4.516-3.563,8.087-8.139,8.263c-1.755,0.067-3.516,0.011-5.273,0.011
		C116.607,32.837,116.607,32.778,116.607,32.72z M116.713,27.932c1.596,0,3.193,0.029,4.789-0.007
		c2.043-0.047,3.509-1.435,3.549-3.294c0.04-1.888-1.471-3.411-3.544-3.44c-3.191-0.045-6.384-0.04-9.576-0.003
		c-2.117,0.024-3.594,1.458-3.595,3.378c-0.001,1.912,1.478,3.319,3.59,3.361C113.521,27.958,115.117,27.933,116.713,27.932z"/>
	<path fill-rule="evenodd" clip-rule="evenodd" d="M152.655,276.367c-13.475,0-26.949,0.003-40.424-0.002
		c-2.98-0.001-4.998-1.274-5.465-3.81c-0.283-1.533-0.243-3.204,0.033-4.744c0.391-2.179,2.304-3.563,4.584-3.709
		c0.358-0.022,0.719-0.007,1.08-0.007c26.829,0,53.658,0,80.487,0c3.956,0,5.858,1.91,5.856,5.896c0,0.719,0.003,1.443-0.087,2.153
		c-0.267,2.104-1.987,3.835-4.088,4.127c-0.591,0.082-1.195,0.092-1.793,0.092C179.444,276.368,166.05,276.367,152.655,276.367z"/>
	<path fill-rule="evenodd" clip-rule="evenodd" d="M86.14,269.958c0.019-3.357,2.672-5.964,6.05-5.941
		c3.341,0.022,5.988,2.716,5.955,6.06c-0.033,3.339-2.718,5.968-6.074,5.946C88.725,276,86.122,273.338,86.14,269.958z"/>
	<path fill-rule="evenodd" clip-rule="evenodd" d="M137.617,242.689c-3.329-0.025-5.99-2.747-5.942-6.077
		c0.048-3.359,2.694-5.936,6.082-5.921c3.323,0.014,5.984,2.727,5.945,6.061C143.661,240.087,140.969,242.714,137.617,242.689z"/>
	<path fill-rule="evenodd" clip-rule="evenodd" d="M188.66,236.638c0.015,3.392-2.57,6.027-5.934,6.053
		c-3.328,0.024-6.04-2.639-6.071-5.964c-0.031-3.326,2.641-6.021,5.982-6.036C186.034,230.675,188.646,233.256,188.66,236.638z"/>
	<path fill-rule="evenodd" clip-rule="evenodd" d="M218.66,236.633c0.016,3.393-2.565,6.029-5.929,6.058
		c-3.329,0.027-6.042-2.634-6.076-5.959s2.638-6.025,5.978-6.041C216.029,230.674,218.646,233.253,218.66,236.633z"/>
	<path fill-rule="evenodd" clip-rule="evenodd" d="M218.379,270.033c-0.006-3.396,2.583-6.011,5.957-6.017
		c3.337-0.005,6.036,2.665,6.047,5.983c0.012,3.312-2.686,6.014-6.012,6.022C221.007,276.031,218.385,273.411,218.379,270.033z"/>
	<path fill-rule="evenodd" clip-rule="evenodd" d="M248.66,236.65c0.012,3.386-2.582,6.021-5.944,6.041
		c-3.329,0.02-6.036-2.65-6.061-5.976c-0.024-3.327,2.646-6.013,5.993-6.024C246.041,230.678,248.649,233.264,248.66,236.65z"/>
	<path fill-rule="evenodd" clip-rule="evenodd" d="M107.68,242.689c-3.338,0.002-6.008-2.671-6.006-6.014
		c0.002-3.348,2.652-5.983,6.018-5.984c3.343-0.002,6.015,2.665,6.008,5.997C113.694,240.026,111.024,242.687,107.68,242.689z"/>
	<path fill-rule="evenodd" clip-rule="evenodd" d="M77.625,242.689c-3.33-0.021-5.992-2.737-5.951-6.068
		c0.042-3.358,2.689-5.942,6.073-5.93c3.326,0.012,5.988,2.718,5.953,6.053C83.666,240.079,80.976,242.711,77.625,242.689z"/>
	<path fill-rule="evenodd" clip-rule="evenodd" d="M98.661,236.636c0.01,3.396-2.568,6.028-5.932,6.055
		c-3.329,0.025-6.044-2.64-6.074-5.962c-0.029-3.328,2.64-6.023,5.981-6.038C96.031,230.675,98.651,233.261,98.661,236.636z"/>
	<path fill-rule="evenodd" clip-rule="evenodd" d="M128.661,236.715c-0.01,3.37-2.641,5.985-6.011,5.976
		c-3.319-0.011-6.016-2.728-5.995-6.041c0.021-3.337,2.692-5.964,6.06-5.959C126.083,230.695,128.67,233.316,128.661,236.715z"/>
	<path fill-rule="evenodd" clip-rule="evenodd" d="M158.66,236.682c0.003,3.375-2.612,6.004-5.977,6.009
		c-3.325,0.004-6.028-2.689-6.028-6.008c0-3.334,2.669-5.988,6.026-5.992C156.063,230.686,158.658,233.287,158.66,236.682z"/>
	<path fill-rule="evenodd" clip-rule="evenodd" d="M167.69,242.689c-3.341,0.007-6.009-2.656-6.016-6.003
		c-0.008-3.344,2.645-5.991,6.007-5.995c3.35-0.005,6.008,2.64,6.019,5.986C173.711,240.004,171.033,242.682,167.69,242.689z"/>
	<path fill-rule="evenodd" clip-rule="evenodd" d="M197.707,242.689c-3.343,0.014-6.013-2.636-6.032-5.986
		c-0.021-3.341,2.634-6.004,5.99-6.012c3.354-0.009,6.017,2.624,6.035,5.97C203.72,239.987,201.048,242.674,197.707,242.689z"/>
	<path fill-rule="evenodd" clip-rule="evenodd" d="M68.661,236.67c0.001,3.383-2.602,6.01-5.966,6.021
		c-3.326,0.01-6.032-2.677-6.04-5.996c-0.007-3.333,2.661-5.997,6.015-6.004C66.054,230.683,68.659,233.283,68.661,236.67z"/>
	<path fill-rule="evenodd" clip-rule="evenodd" d="M227.691,242.689c-3.341,0.007-6.009-2.654-6.017-6.003
		c-0.008-3.343,2.645-5.991,6.006-5.995c3.35-0.005,6.009,2.639,6.02,5.985C233.712,240.003,231.034,242.682,227.691,242.689z"/>
	<path fill-rule="evenodd" clip-rule="evenodd" d="M77.111,264.016c3.363-0.004,6.013,2.63,6.016,5.983
		c0.004,3.359-2.64,6.02-5.986,6.022c-3.337,0.003-6.026-2.663-6.041-5.991C71.085,266.708,73.771,264.021,77.111,264.016z"/>
	<path fill-rule="evenodd" clip-rule="evenodd" d="M209.365,264.016c3.354,0.015,6.013,2.684,5.994,6.019
		c-0.019,3.355-2.676,5.994-6.027,5.987c-3.332-0.008-5.995-2.686-5.993-6.025C203.342,266.656,206.016,264.002,209.365,264.016z"/>
	<path fill-rule="evenodd" clip-rule="evenodd" d="M69.326,259.326c-3.367-0.005-6.001-2.649-5.983-6.007
		c0.018-3.323,2.736-6.033,6.034-6.016c3.315,0.018,5.979,2.725,5.969,6.066C75.335,256.743,72.72,259.332,69.326,259.326z"/>
	<path fill-rule="evenodd" clip-rule="evenodd" d="M99.366,259.326c-3.376,0.012-6.022-2.609-6.024-5.967
		c-0.002-3.326,2.675-6.031,5.995-6.056c3.292-0.024,6.009,2.7,6.009,6.026C105.346,256.717,102.755,259.315,99.366,259.326z"/>
	<path fill-rule="evenodd" clip-rule="evenodd" d="M135.346,253.333c-0.001,3.387-2.593,5.983-5.983,5.993
		c-3.376,0.01-6.021-2.613-6.021-5.97c0-3.327,2.68-6.031,5.998-6.053C132.633,247.282,135.347,250.006,135.346,253.333z"/>
	<path fill-rule="evenodd" clip-rule="evenodd" d="M165.346,253.34c-0.003,3.384-2.601,5.979-5.991,5.985
		c-3.374,0.007-6.017-2.621-6.013-5.978c0.004-3.326,2.693-6.032,6.006-6.045C162.646,247.291,165.349,250.011,165.346,253.34z"/>
	<path fill-rule="evenodd" clip-rule="evenodd" d="M195.346,253.359c-0.008,3.377-2.617,5.968-6.01,5.967
		c-3.369-0.001-6.008-2.641-5.994-5.997c0.014-3.325,2.72-6.032,6.024-6.025C192.68,247.31,195.354,250.019,195.346,253.359z"/>
	<path fill-rule="evenodd" clip-rule="evenodd" d="M219.379,259.326c-3.378,0.017-6.028-2.599-6.037-5.954
		c-0.008-3.327,2.658-6.032,5.982-6.068c3.287-0.036,6.018,2.691,6.021,6.013C225.35,256.708,222.767,259.309,219.379,259.326z"/>
	<path fill-rule="evenodd" clip-rule="evenodd" d="M77.541,220.004c-0.001,3.382-2.62,6.041-5.958,6.05
		c-3.279,0.008-6.04-2.744-6.045-6.026c-0.006-3.325,2.667-5.989,6.021-6.001C74.943,214.016,77.542,216.613,77.541,220.004z"/>
	<path fill-rule="evenodd" clip-rule="evenodd" d="M80.563,220.084c-0.043-3.352,2.576-6.021,5.941-6.058
		c3.367-0.035,6.057,2.587,6.076,5.924c0.02,3.336-2.626,6.054-5.941,6.103C83.352,226.102,80.605,223.404,80.563,220.084z"/>
	<path fill-rule="evenodd" clip-rule="evenodd" d="M107.541,220.003c-0.001,3.382-2.619,6.041-5.957,6.051
		c-3.278,0.009-6.04-2.744-6.046-6.025c-0.006-3.325,2.666-5.99,6.02-6.002C104.942,214.015,107.542,216.612,107.541,220.003z"/>
	<path fill-rule="evenodd" clip-rule="evenodd" d="M116.623,214.027c3.358,0.022,5.988,2.69,5.958,6.042
		c-0.03,3.318-2.791,6.045-6.06,5.985c-3.334-0.061-6-2.785-5.958-6.089C110.607,216.591,113.246,214.005,116.623,214.027z"/>
	<path fill-rule="evenodd" clip-rule="evenodd" d="M176.529,214.027c3.367-0.022,6.043,2.608,6.052,5.949
		c0.008,3.333-2.661,6.052-5.967,6.077c-3.298,0.026-6.027-2.678-6.052-5.994C170.537,216.703,173.162,214.049,176.529,214.027z"/>
	<path fill-rule="evenodd" clip-rule="evenodd" d="M167.541,220.015c-0.004,3.378-2.636,6.041-5.969,6.039
		c-3.285-0.002-6.037-2.756-6.035-6.037c0.003-3.327,2.678-5.984,6.032-5.99C164.953,214.021,167.544,216.62,167.541,220.015z"/>
	<path fill-rule="evenodd" clip-rule="evenodd" d="M197.541,219.998c0,3.384-2.611,6.042-5.951,6.057
		c-3.275,0.014-6.042-2.737-6.052-6.02c-0.011-3.324,2.66-5.993,6.013-6.008C194.938,214.013,197.541,216.608,197.541,219.998z"/>
	<path fill-rule="evenodd" clip-rule="evenodd" d="M200.571,219.852c0.124-3.439,2.849-5.963,6.285-5.822
		c3.332,0.137,5.868,2.916,5.724,6.273c-0.141,3.246-2.996,5.905-6.174,5.748C203.023,225.884,200.452,223.152,200.571,219.852z"/>
	<path fill-rule="evenodd" clip-rule="evenodd" d="M227.541,219.944c0.011,3.404-2.538,6.045-5.897,6.11
		c-3.253,0.063-6.058-2.678-6.105-5.966c-0.048-3.364,2.674-6.078,6.079-6.062C224.949,214.043,227.53,216.622,227.541,219.944z"/>
	<path fill-rule="evenodd" clip-rule="evenodd" d="M236.623,214.027c3.358,0.022,5.988,2.69,5.958,6.042
		c-0.031,3.318-2.792,6.045-6.061,5.985c-3.334-0.061-6-2.785-5.957-6.089C230.607,216.591,233.246,214.004,236.623,214.027z"/>
	<path fill-rule="evenodd" clip-rule="evenodd" d="M146.593,214.027c3.36,0.008,6.006,2.663,5.988,6.012
		c-0.018,3.323-2.748,6.047-6.03,6.016c-3.319-0.032-6.011-2.754-5.99-6.058C140.583,216.627,143.218,214.02,146.593,214.027z"/>
	<path fill-rule="evenodd" clip-rule="evenodd" d="M137.541,220.049c-0.01,3.364-2.681,6.037-6.002,6.004
		c-3.297-0.032-6.027-2.794-6-6.07c0.027-3.333,2.708-5.965,6.065-5.956C134.982,214.037,137.551,216.64,137.541,220.049z"/>
	<path fill-rule="evenodd" clip-rule="evenodd" d="M144.363,259.326c-3.352,0.016-6.055-2.646-6.059-5.966
		c-0.004-3.275,2.735-6.028,6.029-6.059c3.304-0.031,6,2.679,5.997,6.027C150.327,256.741,147.771,259.31,144.363,259.326z"/>
	<path fill-rule="evenodd" clip-rule="evenodd" d="M240.33,253.333c-0.005,3.411-2.563,5.979-5.971,5.993
		c-3.352,0.015-6.056-2.651-6.056-5.97c0-3.276,2.742-6.028,6.032-6.055C237.643,247.274,240.334,249.984,240.33,253.333z"/>
	<path fill-rule="evenodd" clip-rule="evenodd" d="M174.295,259.326c-3.342-0.01-6.058-2.747-5.989-6.034
		c0.069-3.314,2.839-6.035,6.095-5.99c3.343,0.047,5.96,2.737,5.929,6.095C180.299,256.798,177.716,259.336,174.295,259.326z"/>
	<path fill-rule="evenodd" clip-rule="evenodd" d="M120.33,253.288c0.012,3.421-2.524,6.006-5.925,6.038
		c-3.359,0.032-6.048-2.58-6.099-5.925c-0.049-3.255,2.67-6.025,5.987-6.099C117.577,247.23,120.318,249.946,120.33,253.288z"/>
	<path fill-rule="evenodd" clip-rule="evenodd" d="M90.33,253.301c0.007,3.417-2.536,5.997-5.938,6.024
		c-3.356,0.027-6.05-2.602-6.086-5.938c-0.035-3.261,2.69-6.025,6-6.085C87.596,247.243,90.322,249.957,90.33,253.301z"/>
	<path fill-rule="evenodd" clip-rule="evenodd" d="M210.33,253.367c-0.02,3.404-2.592,5.959-6.005,5.959
		c-3.347,0-6.059-2.703-6.021-6.004c0.039-3.299,2.793-6.033,6.065-6.021C207.694,247.312,210.348,250.013,210.33,253.367z"/>
</g>
<text transform="matrix(1 0 0 1 278.6406 -23.0552)" font-family="'MyriadPro-Regular'" font-size="12">file:///H:/Nedladdat/Symbol%201%20%E2%80%93%201.svg</text>
</svg>
