<?xml version="1.0" encoding="utf-8"?>
<!-- Generator: Adobe Illustrator 16.0.0, SVG Export Plug-In . SVG Version: 6.00 Build 0)  -->
<!DOCTYPE svg PUBLIC "-//W3C//DTD SVG 1.1//EN" "http://www.w3.org/Graphics/SVG/1.1/DTD/svg11.dtd">
<svg version="1.1" id="Layer_1" xmlns="http://www.w3.org/2000/svg" xmlns:xlink="http://www.w3.org/1999/xlink" x="0px" y="0px"
	 width="292px" height="286.832px" viewBox="0 0 292 286.832" enable-background="new 0 0 292 286.832" xml:space="preserve">
<g>
	<path d="M0.24,133.236c0-8.4,0-16.8,0-25.2c0.077-0.223,0.181-0.44,0.227-0.669c1.024-5.104,4.759-8.846,9.792-9.802
		c4.846-0.921,9.75,1.228,12.521,5.484c0.144,0.22,0.306,0.428,0.525,0.734c4.125-5.315,9.677-6.896,16.034-6.346
		c0-4.527,0-8.842,0-13.158c0-18.753-0.02-37.506,0.012-56.26c0.009-5.514,0.108-11.03,0.274-16.542
		c0.182-6.041,2.652-9.273,8.286-11.122c0.034-0.011,0.06-0.052,0.089-0.079c65.28,0,130.561,0,195.84,0
		c0.264,0.08,0.521,0.187,0.791,0.236c3.809,0.694,6.385,2.857,7.501,6.561c0.407,1.353,0.583,2.826,0.585,4.245
		c0.032,28.434,0.024,56.867,0.024,85.3c0,0.489,0,0.979,0,1.448c3.192-1.056,6.233-0.896,9.251-0.155
		c3.14,0.77,5.586,2.655,7.597,5.202c0.238-0.305,0.411-0.521,0.577-0.742c3.273-4.343,8.712-6.065,13.783-4.363
		c5,1.679,8.22,6.273,8.221,11.738c0.002,7.358,0.021,14.717-0.007,22.075c-0.019,4.782-2.187,8.412-6.339,10.667
		c-4.199,2.279-8.512,2.123-12.489-0.562c-1.642-1.107-2.925-2.742-4.403-4.168c-2.877,3.744-6.953,5.85-11.918,6.359
		c0.332,0.239,0.625,0.354,0.912,0.481c0.292,0.129,0.584,0.258,0.869,0.403c4.863,2.47,8.012,6.31,9.018,11.704
		c2.322,12.443,4.563,24.902,6.842,37.354c2.926,15.986,5.853,31.975,8.787,47.959c1.045,5.694,2.035,11.4,3.201,17.071
		c0.746,3.623,1.24,7.224,0.916,10.935c-0.722,8.264-5.455,13.988-13.479,16.061c-1.729,0.446-3.518,0.666-5.279,0.99
		c-82.318,0-164.64,0-246.96,0c-1.021-0.163-2.044-0.311-3.061-0.493c-4.306-0.776-8.23-2.339-11.222-5.687
		c-3.788-4.235-4.868-9.371-4.521-14.834c0.174-2.732,0.789-5.442,1.28-8.148c2.655-14.619,5.331-29.232,8.005-43.85
		c3.422-18.701,6.905-37.393,10.247-56.107c1.16-6.494,4.568-11.021,10.642-13.561c0.146-0.061,0.27-0.174,0.584-0.381
		c-4.606-0.281-8.166-2.171-10.94-5.678c-0.324,0.405-0.568,0.709-0.811,1.014c-4.904,6.182-14.295,6.167-19.186-0.013
		C1.428,137.533,0.752,135.425,0.24,133.236z M143.942,126.188c-0.415-0.093-0.565-0.128-0.716-0.161
		c-6.089-1.302-9.807-5.901-9.808-12.133c0-3.76-0.003-7.52,0.001-11.28c0.006-5.707,3.909-10.578,9.513-11.606
		c1.865-0.342,3.821-0.292,5.732-0.252c5.604,0.116,10.742,4.706,11.141,10.308c0.324,4.576,0.366,9.2,0.133,13.781
		c-0.289,5.652-3.938,9.792-9.199,11.056c-0.614,0.147-1.245,0.231-1.887,0.347c0,2.417,0.028,4.771-0.004,7.124
		c-0.086,6.074-0.066,12.153-0.344,18.219c-0.207,4.548-2.552,7.718-7.025,9.129c-1.256,0.396-2.468,0.938-3.732,1.298
		c-11.559,3.285-23.125,6.545-34.688,9.815c-0.363,0.103-0.72,0.228-1.136,0.358c0.19,0.41,0.316,0.701,0.458,0.983
		c0.321,0.644,0.638,1.288,0.976,1.923c5.974,11.201,14.952,18.711,27.317,21.868c9.782,2.499,19.633,2.474,29.422-0.032
		c10.254-2.625,18.395-8.352,24.348-17.117c5.861-8.631,8.746-18.32,9.949-28.572c0.322-2.762,0.412-5.549,0.619-8.473
		c17.879,0,35.77,0,53.777,0c0-0.62,0-1.092,0-1.565c0-43.12,0.001-86.24-0.006-129.36c0-0.797-0.047-1.602-0.157-2.39
		c-0.403-2.876-2.177-4.704-4.953-5.061c-0.866-0.111-1.756-0.053-2.635-0.053c-63.159,0-126.319,0-189.479-0.002
		c-0.64,0-1.279-0.038-1.918-0.041c-2.475-0.008-4.337,1.179-5.209,3.485c-0.391,1.033-0.708,2.155-0.746,3.248
		c-0.188,5.472-0.391,10.947-0.374,16.421c0.079,24.95,0.264,49.898,0.339,74.848c0.039,12.757-0.074,25.514-0.118,38.271
		c-0.002,0.708,0,1.417,0,2.267c17.535,0,34.872,0,52.27,0c-0.029,8.515,1.374,16.646,4.176,24.623
		c0.472-0.106,0.858-0.181,1.235-0.283c5.124-1.396,10.267-2.727,15.366-4.209c7.743-2.25,15.45-4.624,23.184-6.905
		c2.365-0.696,3.643-2.207,3.795-4.646c0.156-2.511,0.344-5.022,0.367-7.538C143.979,138.009,143.942,132.135,143.942,126.188z
		 M198.818,146.768c-0.116,1.327-0.209,2.479-0.322,3.631c-0.928,9.438-3.289,18.474-7.811,26.854
		c-6.297,11.676-15.687,19.639-28.541,23.271c-9.149,2.586-18.457,2.849-27.793,1.31c-12.533-2.065-22.82-7.983-30.416-18.3
		c-5.28-7.17-8.509-15.256-10.303-23.911c-0.865-4.174-1.346-8.427-2.024-12.802c-0.218-0.012-0.646-0.051-1.075-0.053
		c-16.12-0.002-32.239-0.033-48.358,0.037c-2.051,0.01-4.17,0.313-6.136,0.894c-5.241,1.541-8.511,4.991-9.42,10.507
		c-0.396,2.402-0.874,4.794-1.313,7.189c-2.911,15.871-5.822,31.741-8.731,47.612c-2.78,15.164-5.514,30.337-8.365,45.487
		c-0.756,4.017-1.656,7.977-1.039,12.104c0.839,5.613,3.737,9.613,9.253,11.224c2.609,0.761,5.415,1.182,8.133,1.185
		c80.476,0.061,160.952,0.049,241.429,0.046c0.8,0,1.602-0.006,2.396-0.065c2.852-0.211,5.637-0.729,8.192-2.073
		c5.065-2.662,6.856-7.203,7.114-12.591c0.154-3.229-0.598-6.333-1.187-9.479c-2.802-14.957-5.507-29.932-8.247-44.899
		c-3.344-18.269-6.759-36.523-9.99-54.812c-0.965-5.454-3.574-9.403-8.861-11.17c-2.197-0.733-4.611-1.13-6.93-1.146
		c-16.119-0.096-32.238-0.049-48.357-0.049C199.725,146.768,199.33,146.768,198.818,146.768z M287.259,120.731
		c0-3.759,0.022-7.518-0.006-11.277c-0.028-3.82-3.142-6.974-7.004-7.154c-3.715-0.173-7.284,2.808-7.381,6.578
		c-0.181,7.033-0.108,14.072-0.134,21.108c-0.002,0.758,0.02,1.519,0.088,2.274c0.378,4.185,3.599,6.962,7.803,6.747
		c3.646-0.186,6.625-3.485,6.633-7.359C287.266,128.01,287.259,124.371,287.259,120.731z M5.221,120.6
		c0,3.679-0.024,7.358,0.006,11.037c0.035,4.252,3.186,7.396,7.335,7.373c4.037-0.022,7.128-3.247,7.13-7.453
		c0.003-7.238,0.003-14.477-0.003-21.715c0-0.518-0.005-1.046-0.103-1.551c-0.703-3.636-4.085-6.29-7.583-5.976
		c-3.87,0.347-6.724,3.36-6.771,7.248C5.187,113.241,5.222,116.921,5.221,120.6z M38.592,139.104c0-12.402,0-24.563,0-36.803
		c-1.02,0-1.937-0.039-2.849,0.007c-6.035,0.303-10.597,5.098-10.601,11.131c-0.004,5.557-0.013,11.115,0.003,16.671
		c0.012,4.22,2.876,7.878,7.045,8.646C34.244,139.135,36.393,139.001,38.592,139.104z M138.332,108.516
		c0,1.919-0.025,3.839,0.005,5.758c0.053,3.345,2.239,6.118,5.518,6.775c1.351,0.271,2.782,0.195,4.174,0.192
		c3.797-0.009,6.927-2.99,7.002-6.779c0.08-3.997,0.072-7.998,0.004-11.995c-0.061-3.468-2.705-6.338-6.163-6.715
		c-1.381-0.15-2.803-0.163-4.185-0.024c-3.734,0.375-6.302,3.264-6.352,7.03C138.311,104.677,138.331,106.597,138.332,108.516z
		 M255.693,138.933c6.117,0.541,11.524-4.591,11.568-10.917c0.035-5.399,0.014-10.799,0.006-16.199
		c-0.009-6.322-5.229-10.573-11.574-9.361C255.693,114.579,255.693,126.716,255.693,138.933z"/>
	<path d="M89.903,57.337c-8.64,0-17.279,0.01-25.919-0.005c-3.632-0.006-6.732-2.204-7.916-5.543
		c-1.151-3.249-0.168-6.907,2.485-9.138c1.559-1.311,3.368-1.914,5.416-1.912c17.359,0.012,34.718,0.003,52.077,0.009
		c4.738,0.001,8.328,3.537,8.363,8.203c0.036,4.686-3.588,8.363-8.348,8.378C107.342,57.357,98.623,57.337,89.903,57.337z
		 M89.951,52.371c8.56,0,17.12,0.001,25.679-0.001c2.313,0,3.861-1.348,3.867-3.348c0.005-1.982-1.567-3.362-3.853-3.363
		c-6.72-0.003-13.439-0.001-20.159-0.001c-10.4,0-20.799,0.007-31.199-0.008c-1.195-0.002-2.221,0.323-2.969,1.264
		c-0.836,1.053-1.041,2.235-0.447,3.478c0.654,1.368,1.778,1.983,3.281,1.982C72.751,52.367,81.351,52.37,89.951,52.371z"/>
	<path d="M214.574,40.746c5.638,0,11.275-0.004,16.914,0.001c4.822,0.005,8.474,3.535,8.496,8.203
		c0.024,4.726-3.639,8.375-8.479,8.382c-11.396,0.016-22.792,0.021-34.188-0.003c-4.373-0.009-7.826-3.116-8.352-7.405
		c-0.486-3.991,2.1-7.812,6.084-8.901c0.76-0.207,1.577-0.263,2.369-0.266C203.139,40.736,208.855,40.746,214.574,40.746z
		 M214.473,45.657c-5.596,0-11.191-0.003-16.787,0.002c-2.293,0.002-3.802,1.369-3.778,3.405c0.021,1.979,1.518,3.304,3.758,3.305
		c11.19,0.003,22.384,0.003,33.576-0.005c0.474,0,0.969-0.023,1.416-0.16c1.632-0.5,2.573-2.041,2.331-3.717
		c-0.239-1.648-1.651-2.82-3.486-2.825C225.825,45.649,220.148,45.657,214.473,45.657z"/>
	<path d="M163.912,32.901c-5.516,0-11.032,0.042-16.549-0.015c-3.448-0.036-6.104-1.589-7.599-4.729
		c-1.443-3.03-1.104-6.008,0.929-8.692c1.621-2.139,3.864-3.187,6.542-3.191c11.113-0.016,22.225-0.049,33.336,0.014
		c4.824,0.027,8.316,3.674,8.293,8.401c-0.021,4.554-3.666,8.159-8.404,8.202C174.943,32.939,169.428,32.901,163.912,32.901z
		 M163.945,27.935c3.722,0,7.441,0.004,11.16-0.001c1.92-0.002,3.842,0.042,5.758-0.051c1.607-0.078,2.869-1.382,3.02-2.908
		c0.17-1.722-0.806-3.195-2.465-3.616c-0.57-0.145-1.184-0.173-1.777-0.174c-10.279-0.01-20.56-0.007-30.84-0.007
		c-0.52,0-1.042-0.025-1.56,0.009c-1.661,0.107-2.951,1.18-3.266,2.687c-0.462,2.206,1.087,4.037,3.533,4.051
		C152.986,27.956,158.467,27.934,163.945,27.935z"/>
	<path d="M158.4,40.746c4.756,0,9.512-0.006,14.267,0.002c4.76,0.007,8.442,3.606,8.467,8.259c0.025,4.583-3.728,8.314-8.442,8.324
		c-9.551,0.02-19.103,0.021-28.653,0c-4.819-0.011-8.45-3.674-8.423-8.42c0.025-4.607,3.666-8.153,8.399-8.163
		C148.811,40.738,153.604,40.746,158.4,40.746z M158.355,45.657c-4.678,0-9.357-0.003-14.038,0.002
		c-2.235,0.002-3.725,1.335-3.736,3.323c-0.011,2.021,1.449,3.385,3.667,3.386c9.397,0.006,18.797,0.006,28.194,0
		c2.162-0.001,3.738-1.45,3.721-3.38c-0.018-1.95-1.566-3.327-3.771-3.329C167.716,45.653,163.036,45.657,158.355,45.657z"/>
	<path d="M75.047,16.266c3.68,0.001,7.36-0.042,11.04,0.013c4.16,0.063,7.52,2.855,8.204,6.713c0.716,4.039-1.44,7.96-5.225,9.335
		c-0.922,0.335-1.946,0.542-2.924,0.548c-7.399,0.045-14.799,0.065-22.199,0.009c-4.279-0.033-7.804-3.139-8.251-7.091
		c-0.502-4.438,1.992-8.209,6.184-9.259c0.803-0.201,1.66-0.251,2.493-0.257C67.928,16.25,71.488,16.266,75.047,16.266z
		 M75.025,27.928c0,0.001,0,0.003,0,0.004c3.64,0,7.28,0.025,10.919-0.01c2.024-0.02,3.52-1.462,3.552-3.307
		c0.032-1.841-1.448-3.408-3.452-3.419c-7.359-0.042-14.718-0.037-22.078,0.001c-1.528,0.008-2.679,0.799-3.219,2.27
		c-0.803,2.187,0.785,4.408,3.24,4.447C67.666,27.971,71.346,27.928,75.025,27.928z"/>
	<path d="M75,70.746c3.68,0,7.359-0.006,11.039,0.002c4.742,0.01,8.332,3.53,8.371,8.195c0.039,4.688-3.582,8.367-8.339,8.386
		c-7.399,0.03-14.799,0.036-22.198-0.002c-4.643-0.024-8.318-3.785-8.271-8.354c0.048-4.658,3.646-8.208,8.359-8.225
		C67.64,70.735,71.32,70.746,75,70.746z M75.004,75.657c-3.6,0-7.2-0.007-10.799,0.002c-2.112,0.005-3.635,1.385-3.685,3.307
		c-0.049,1.907,1.56,3.398,3.713,3.4c7.199,0.008,14.399,0.008,21.599,0c2.12-0.002,3.632-1.383,3.666-3.307
		c0.033-1.94-1.534-3.395-3.694-3.4C82.204,75.65,78.604,75.657,75.004,75.657z"/>
	<path d="M72.853,100.746c2.92,0,5.839-0.008,8.759,0.002c4.668,0.015,8.312,3.542,8.373,8.09c0.063,4.645-3.477,8.421-8.129,8.48
		c-6.039,0.077-12.079,0.069-18.118,0.002c-4.577-0.05-8.194-3.841-8.137-8.36c0.058-4.614,3.632-8.181,8.253-8.21
		C66.854,100.73,69.854,100.746,72.853,100.746z M72.74,112.37c2.878,0,5.757,0.008,8.636-0.002c2.144-0.007,3.62-1.355,3.641-3.299
		c0.022-2.002-1.465-3.405-3.655-3.408c-5.717-0.009-11.435-0.009-17.152,0c-2.155,0.003-3.746,1.496-3.694,3.421
		c0.052,1.887,1.607,3.278,3.708,3.286C67.062,112.378,69.901,112.37,72.74,112.37z"/>
	<path d="M110.799,100.986c2.638,0,5.275,0,7.913,0c4.544,0,7.295,2.401,7.931,6.92c0.612,4.359-2.101,8.841-6.07,9.028
		c-6.575,0.309-13.176,0.131-19.764,0.032c-1.955-0.029-3.403-1.291-4.516-2.841c-2.257-3.143-2.048-7.881,0.471-10.822
		c1.286-1.5,2.907-2.328,4.923-2.32C104.724,100.995,107.761,100.986,110.799,100.986z M110.715,112.61
		c2.837,0,5.675-0.033,8.511,0.015c1.256,0.021,2.187-0.519,2.496-1.635c0.294-1.066,0.43-2.281,0.229-3.354
		c-0.307-1.641-1.262-2.218-2.917-2.218c-5.594-0.002-11.188,0.023-16.782-0.018c-1.365-0.01-2.34,0.582-2.628,1.798
		c-0.263,1.11-0.312,2.375-0.058,3.479c0.335,1.461,1.237,1.93,2.759,1.932C105.122,112.613,107.918,112.61,110.715,112.61z"/>
	<path d="M116.607,32.72c-2.152,0-4.341,0.251-6.45-0.053c-4.26-0.613-6.938-4.29-6.732-8.803c0.179-3.91,3.429-7.299,7.531-7.507
		c3.706-0.188,7.432-0.182,11.14-0.039c4.529,0.174,7.993,3.923,7.923,8.305c-0.072,4.516-3.563,8.087-8.139,8.263
		c-1.755,0.067-3.516,0.011-5.273,0.011C116.607,32.837,116.607,32.778,116.607,32.72z M116.713,27.932
		c1.596,0,3.193,0.029,4.789-0.007c2.043-0.047,3.509-1.435,3.549-3.294c0.04-1.888-1.471-3.411-3.544-3.44
		c-3.191-0.045-6.384-0.04-9.576-0.003c-2.117,0.024-3.594,1.458-3.595,3.378c-0.001,1.912,1.478,3.319,3.59,3.361
		C113.521,27.958,115.117,27.933,116.713,27.932z"/>
	<path d="M152.654,276.367c-13.474,0-26.948,0.003-40.423-0.002c-2.98-0.001-4.998-1.274-5.465-3.811
		c-0.283-1.533-0.243-3.203,0.033-4.744c0.391-2.179,2.304-3.563,4.584-3.709c0.358-0.021,0.719-0.007,1.08-0.007
		c26.829,0,53.658,0,80.487,0c3.956,0,5.858,1.91,5.856,5.896c0,0.719,0.002,1.442-0.088,2.153
		c-0.267,2.104-1.986,3.834-4.088,4.127c-0.591,0.082-1.195,0.092-1.793,0.092C179.443,276.368,166.05,276.367,152.654,276.367z"/>
	<path d="M86.14,269.958c0.019-3.356,2.672-5.964,6.05-5.94c3.341,0.021,5.988,2.715,5.955,6.06
		c-0.033,3.339-2.718,5.968-6.074,5.946C88.725,276,86.122,273.338,86.14,269.958z"/>
	<path d="M137.617,242.689c-3.329-0.025-5.99-2.748-5.942-6.078c0.048-3.358,2.694-5.936,6.082-5.92
		c3.323,0.014,5.984,2.727,5.945,6.061C143.661,240.087,140.969,242.714,137.617,242.689z"/>
	<path d="M188.66,236.639c0.015,3.392-2.57,6.026-5.934,6.053c-3.328,0.023-6.041-2.64-6.072-5.965
		c-0.03-3.326,2.642-6.021,5.982-6.035C186.034,230.675,188.646,233.256,188.66,236.639z"/>
	<path d="M218.66,236.633c0.016,3.393-2.564,6.029-5.93,6.059c-3.328,0.026-6.041-2.635-6.076-5.959
		c-0.033-3.325,2.639-6.025,5.979-6.041C216.029,230.674,218.646,233.253,218.66,236.633z"/>
	<path d="M218.379,270.033c-0.006-3.396,2.583-6.012,5.957-6.018c3.337-0.005,6.036,2.666,6.047,5.983
		c0.012,3.312-2.686,6.015-6.012,6.022C221.007,276.031,218.385,273.411,218.379,270.033z"/>
	<path d="M248.66,236.65c0.012,3.386-2.582,6.021-5.944,6.041c-3.329,0.02-6.036-2.65-6.062-5.977
		c-0.023-3.326,2.646-6.013,5.994-6.023C246.041,230.678,248.648,233.264,248.66,236.65z"/>
	<path d="M107.68,242.689c-3.338,0.002-6.008-2.672-6.006-6.015c0.002-3.348,2.652-5.983,6.018-5.983
		c3.343-0.002,6.015,2.664,6.008,5.996C113.694,240.025,111.024,242.688,107.68,242.689z"/>
	<path d="M77.625,242.689c-3.33-0.021-5.992-2.737-5.951-6.068c0.042-3.357,2.689-5.941,6.073-5.93
		c3.326,0.012,5.988,2.718,5.953,6.053C83.666,240.079,80.976,242.711,77.625,242.689z"/>
	<path d="M98.661,236.636c0.01,3.396-2.568,6.028-5.932,6.056c-3.329,0.024-6.044-2.641-6.074-5.963
		c-0.029-3.328,2.64-6.022,5.981-6.037C96.031,230.675,98.651,233.261,98.661,236.636z"/>
	<path d="M128.661,236.715c-0.01,3.37-2.641,5.985-6.011,5.977c-3.319-0.012-6.016-2.729-5.995-6.041
		c0.021-3.338,2.692-5.965,6.06-5.959C126.083,230.695,128.67,233.316,128.661,236.715z"/>
	<path d="M158.66,236.682c0.003,3.375-2.612,6.004-5.977,6.01c-3.326,0.004-6.029-2.689-6.029-6.008c0-3.334,2.67-5.988,6.027-5.992
		C156.063,230.686,158.658,233.287,158.66,236.682z"/>
	<path d="M167.689,242.689c-3.34,0.006-6.008-2.656-6.016-6.004c-0.008-3.344,2.645-5.99,6.008-5.994
		c3.35-0.006,6.008,2.64,6.019,5.985C173.711,240.004,171.033,242.682,167.689,242.689z"/>
	<path d="M197.707,242.689c-3.344,0.014-6.014-2.637-6.032-5.986c-0.021-3.342,2.634-6.004,5.99-6.012
		c3.354-0.01,6.017,2.623,6.035,5.97C203.721,239.986,201.048,242.674,197.707,242.689z"/>
	<path d="M68.661,236.67c0.001,3.383-2.602,6.01-5.966,6.021c-3.326,0.01-6.032-2.678-6.04-5.996
		c-0.007-3.334,2.661-5.997,6.015-6.004C66.054,230.684,68.659,233.283,68.661,236.67z"/>
	<path d="M227.691,242.689c-3.342,0.006-6.01-2.654-6.018-6.004c-0.008-3.343,2.645-5.99,6.006-5.994
		c3.35-0.006,6.01,2.639,6.021,5.984C233.712,240.003,231.034,242.682,227.691,242.689z"/>
	<path d="M77.111,264.016c3.363-0.004,6.013,2.631,6.016,5.983c0.004,3.358-2.64,6.021-5.986,6.022
		c-3.337,0.002-6.026-2.664-6.041-5.991C71.085,266.708,73.771,264.021,77.111,264.016z"/>
	<path d="M209.365,264.016c3.354,0.016,6.013,2.685,5.994,6.02c-0.02,3.355-2.676,5.994-6.027,5.986
		c-3.332-0.008-5.995-2.686-5.993-6.024C203.342,266.656,206.016,264.002,209.365,264.016z"/>
	<path d="M69.326,259.326c-3.367-0.006-6.001-2.649-5.983-6.008c0.018-3.322,2.736-6.032,6.034-6.016
		c3.315,0.018,5.979,2.725,5.969,6.066C75.335,256.743,72.72,259.332,69.326,259.326z"/>
	<path d="M99.366,259.326c-3.376,0.012-6.022-2.609-6.024-5.967c-0.002-3.326,2.675-6.031,5.995-6.057
		c3.292-0.023,6.009,2.7,6.009,6.026C105.346,256.717,102.755,259.314,99.366,259.326z"/>
	<path d="M135.346,253.333c-0.001,3.387-2.593,5.983-5.983,5.993c-3.376,0.01-6.021-2.613-6.021-5.971
		c0-3.326,2.68-6.03,5.998-6.053C132.633,247.282,135.347,250.006,135.346,253.333z"/>
	<path d="M165.346,253.34c-0.003,3.385-2.601,5.979-5.99,5.985c-3.375,0.007-6.018-2.621-6.014-5.978
		c0.004-3.326,2.693-6.033,6.006-6.046C162.646,247.291,165.35,250.011,165.346,253.34z"/>
	<path d="M195.346,253.359c-0.008,3.377-2.617,5.968-6.01,5.967c-3.369-0.001-6.008-2.641-5.994-5.997
		c0.014-3.325,2.721-6.032,6.024-6.024C192.68,247.311,195.354,250.02,195.346,253.359z"/>
	<path d="M219.379,259.326c-3.378,0.017-6.027-2.6-6.037-5.954c-0.008-3.327,2.658-6.032,5.982-6.067
		c3.287-0.037,6.018,2.69,6.021,6.012C225.35,256.708,222.768,259.309,219.379,259.326z"/>
	<path d="M77.541,220.004c-0.001,3.382-2.62,6.041-5.958,6.051c-3.279,0.008-6.04-2.744-6.045-6.027
		c-0.006-3.324,2.667-5.988,6.021-6C74.943,214.016,77.542,216.613,77.541,220.004z"/>
	<path d="M80.563,220.084c-0.043-3.352,2.576-6.021,5.941-6.059c3.367-0.034,6.057,2.588,6.076,5.925
		c0.02,3.336-2.626,6.054-5.941,6.103C83.352,226.102,80.605,223.404,80.563,220.084z"/>
	<path d="M107.541,220.003c-0.001,3.382-2.619,6.041-5.957,6.052c-3.278,0.008-6.04-2.744-6.046-6.025
		c-0.006-3.325,2.666-5.99,6.02-6.002C104.942,214.016,107.542,216.611,107.541,220.003z"/>
	<path d="M116.623,214.027c3.358,0.021,5.988,2.689,5.958,6.041c-0.03,3.318-2.791,6.046-6.06,5.986
		c-3.334-0.062-6-2.785-5.958-6.09C110.607,216.591,113.246,214.005,116.623,214.027z"/>
	<path d="M176.529,214.027c3.367-0.022,6.043,2.607,6.052,5.949c0.008,3.332-2.661,6.051-5.968,6.076
		c-3.297,0.026-6.026-2.678-6.051-5.994C170.537,216.703,173.162,214.049,176.529,214.027z"/>
	<path d="M167.541,220.016c-0.004,3.377-2.637,6.041-5.969,6.039c-3.285-0.003-6.037-2.757-6.035-6.037
		c0.003-3.328,2.678-5.984,6.031-5.99C164.953,214.021,167.544,216.62,167.541,220.016z"/>
	<path d="M197.541,219.998c0,3.384-2.611,6.042-5.951,6.057c-3.275,0.014-6.042-2.736-6.052-6.02
		c-0.011-3.324,2.659-5.993,6.013-6.008C194.938,214.014,197.541,216.607,197.541,219.998z"/>
	<path d="M200.57,219.852c0.125-3.438,2.85-5.963,6.285-5.821c3.332,0.137,5.869,2.915,5.725,6.272
		c-0.141,3.246-2.996,5.905-6.174,5.748C203.023,225.884,200.452,223.152,200.57,219.852z"/>
	<path d="M227.541,219.943c0.012,3.404-2.538,6.046-5.896,6.111c-3.254,0.063-6.059-2.679-6.105-5.967
		c-0.048-3.363,2.674-6.078,6.079-6.063C224.949,214.043,227.529,216.622,227.541,219.943z"/>
	<path d="M236.623,214.027c3.357,0.021,5.988,2.689,5.958,6.041c-0.031,3.318-2.792,6.046-6.062,5.986
		c-3.334-0.062-6-2.785-5.957-6.09C230.607,216.591,233.246,214.004,236.623,214.027z"/>
	<path d="M146.593,214.027c3.36,0.008,6.007,2.662,5.988,6.012c-0.019,3.322-2.748,6.047-6.03,6.016
		c-3.319-0.031-6.011-2.754-5.99-6.058C140.583,216.627,143.218,214.02,146.593,214.027z"/>
	<path d="M137.541,220.049c-0.01,3.364-2.681,6.037-6.002,6.004c-3.297-0.031-6.027-2.794-6-6.07
		c0.027-3.332,2.708-5.965,6.065-5.955C134.982,214.037,137.551,216.641,137.541,220.049z"/>
	<path d="M144.363,259.326c-3.352,0.016-6.055-2.646-6.059-5.967c-0.004-3.274,2.735-6.027,6.029-6.059
		c3.304-0.031,6,2.68,5.997,6.027C150.327,256.741,147.771,259.311,144.363,259.326z"/>
	<path d="M240.33,253.333c-0.005,3.411-2.563,5.979-5.971,5.993c-3.353,0.015-6.057-2.651-6.057-5.971
		c0-3.275,2.742-6.027,6.032-6.055C237.643,247.273,240.334,249.984,240.33,253.333z"/>
	<path d="M174.295,259.326c-3.342-0.01-6.059-2.747-5.988-6.034c0.068-3.313,2.838-6.035,6.094-5.99
		c3.344,0.048,5.961,2.737,5.93,6.095C180.299,256.798,177.716,259.336,174.295,259.326z"/>
	<path d="M120.33,253.288c0.012,3.421-2.524,6.006-5.925,6.038c-3.359,0.031-6.048-2.58-6.099-5.926
		c-0.049-3.254,2.67-6.024,5.987-6.099C117.577,247.23,120.318,249.945,120.33,253.288z"/>
	<path d="M90.33,253.301c0.007,3.417-2.536,5.997-5.938,6.024c-3.356,0.026-6.05-2.603-6.086-5.938c-0.035-3.261,2.69-6.025,6-6.085
		C87.596,247.243,90.322,249.957,90.33,253.301z"/>
	<path d="M210.33,253.367c-0.02,3.404-2.592,5.959-6.005,5.959c-3.347,0-6.06-2.703-6.021-6.004
		c0.038-3.299,2.793-6.033,6.064-6.021C207.693,247.313,210.348,250.014,210.33,253.367z"/>
</g>
</svg>
